<svg width="256" height="256" viewBox="0 0 256 256" fill="none" xmlns="http://www.w3.org/2000/svg">
<rect width="256" height="256" rx="32" fill="#5B5BD6"/>
<path d="M154.739 60.4805C152.494 61.9971 150.267 63.5665 148.111 65.136C141.201 70.1264 134.468 75.5577 128.017 81.2536C121.514 75.5225 114.781 70.0911 107.924 65.136C105.732 63.5489 103.505 61.9795 101.296 60.4629C89.1905 52.2102 72.967 54.4673 63.6005 65.6826L59.6418 70.4086C53.7568 77.3741 48.1016 84.8509 42.8174 92.6452L41.1385 95.1316C32.7087 107.581 35.4302 124.351 47.3416 133.31C48.7908 134.403 50.2223 135.496 51.6538 136.625C58.7582 142.197 65.7212 148.246 72.3131 154.647C79.0111 161.119 85.4616 168.066 91.488 175.314C97.7795 182.826 103.682 190.762 109.072 198.908C109.196 199.085 109.337 199.244 109.479 199.385C109.514 199.42 109.549 199.473 109.585 199.508C109.762 199.667 109.956 199.808 110.15 199.931C110.203 199.967 110.256 200.019 110.309 200.037C110.504 200.143 110.698 200.213 110.893 200.284C110.981 200.319 111.069 200.354 111.158 200.372C111.334 200.407 111.511 200.425 111.688 200.443C111.812 200.443 111.918 200.496 112.024 200.496H143.958C144.895 200.496 145.796 200.125 146.45 199.455C146.609 199.296 146.768 199.102 146.892 198.908C152.264 190.762 158.185 182.826 164.494 175.296C170.52 168.066 176.971 161.101 183.669 154.647C190.261 148.281 197.206 142.197 204.346 136.642C205.777 135.514 207.209 134.403 208.658 133.31C220.569 124.369 223.291 107.581 214.861 95.1493L213.182 92.6628C207.916 84.8686 202.243 77.3917 196.375 70.4262L192.417 65.6826C183.05 54.4673 166.827 52.2101 154.721 60.4805H154.739ZM187.009 70.197L191.003 74.9405C196.729 81.7297 202.243 89.0126 207.368 96.5953L209.047 99.0817C215.374 108.41 213.341 120.983 204.434 127.667C202.967 128.795 201.465 129.924 200.016 131.07C192.699 136.783 185.542 143.008 178.791 149.568C171.934 156.181 165.289 163.34 159.104 170.782C153.042 177.994 147.334 185.612 142.103 193.442H118.068C118.209 193.195 118.333 192.966 118.456 192.719C118.863 192.031 119.269 191.343 119.676 190.656C120.383 189.439 121.107 188.24 121.85 187.041C122.398 186.124 122.963 185.224 123.529 184.307C124.129 183.355 124.73 182.403 125.349 181.468C126.003 180.463 126.639 179.458 127.311 178.453C127.894 177.571 128.495 176.707 129.095 175.825C129.714 174.926 130.315 174.027 130.933 173.127C136.447 165.263 142.403 157.662 148.641 150.573C154.721 143.573 161.295 136.836 168.117 130.541C174.002 125.092 180.223 119.855 186.62 114.988C189.677 112.625 190.331 108.375 188.087 105.254C183.916 99.4872 179.427 93.8267 174.744 88.3777C172.941 86.2793 170.096 85.4858 167.551 86.1559C167.127 86.2617 166.721 86.4204 166.314 86.6143C165.908 86.8083 165.519 87.0376 165.148 87.3197C158.379 92.3631 151.805 97.7591 145.619 103.349C138.603 109.68 131.799 116.504 125.42 123.628C119.976 129.677 114.763 136.043 109.868 142.638C104.46 136.642 98.7161 130.841 92.7958 125.374C86.7517 119.784 80.3542 114.406 73.78 109.38C77.8447 103.79 82.1922 98.2705 86.7517 92.9626C93.3436 97.8825 99.7412 103.138 105.75 108.569C105.75 108.569 105.785 108.586 105.785 108.604L108.383 110.967L110.769 108.304C116.884 101.427 123.511 94.7966 130.439 88.5717C137.419 82.2587 144.753 76.2984 152.3 70.8494C154.385 69.3153 156.559 67.7987 158.75 66.3175C167.834 60.1279 179.993 61.8031 187.027 70.2146L187.009 70.197Z" fill="#FDFDFF"/>
</svg>
