<svg width="680" height="129" viewBox="0 0 680 129" fill="none" xmlns="http://www.w3.org/2000/svg">
<path d="M104.605 4.39301C102.624 5.73183 100.658 7.11734 98.7547 8.50286C92.6544 12.9085 86.7102 17.7033 81.0156 22.7317C75.2742 17.6722 69.3299 12.8774 63.2765 8.50286C61.3419 7.10178 59.3761 5.71627 57.4259 4.37745C46.7387 -2.9082 32.4164 -0.915545 24.1475 8.98547L20.6528 13.1576C15.4574 19.3068 10.4649 25.9075 5.79996 32.7884L4.31781 34.9834C-3.12419 45.9742 -0.721539 60.779 9.79398 68.6873C11.0733 69.6525 12.3371 70.6177 13.6008 71.614C19.8727 76.5334 26.0197 81.8731 31.8391 87.5242C37.7522 93.2375 43.4468 99.3711 48.767 105.769C54.3212 112.401 59.5321 119.407 64.2906 126.599C64.3998 126.755 64.5246 126.895 64.6494 127.019C64.6806 127.05 64.7118 127.097 64.7431 127.128C64.8991 127.268 65.0707 127.393 65.2423 127.502C65.2891 127.533 65.3359 127.58 65.3827 127.595C65.5543 127.689 65.7259 127.751 65.8976 127.813C65.9756 127.844 66.0536 127.875 66.1316 127.891C66.2876 127.922 66.4436 127.938 66.5997 127.953C66.7089 127.953 66.8025 128 66.8961 128H95.0883C95.9152 128 96.7109 127.673 97.2882 127.082C97.4286 126.941 97.569 126.77 97.6782 126.599C102.421 119.407 107.648 112.401 113.217 105.754C118.538 99.3711 124.232 93.2219 130.145 87.5242C135.965 81.9043 142.096 76.5334 148.399 71.6296C149.663 70.6333 150.927 69.6525 152.206 68.6873C162.722 60.7945 165.124 45.9742 157.682 34.999L156.2 32.8039C151.551 25.923 146.543 19.3224 141.363 13.1732L137.868 8.98547C129.599 -0.915545 115.277 -2.90821 104.59 4.39301H104.605ZM133.094 12.9708L136.62 17.1585C141.675 23.152 146.543 29.5814 151.067 36.2755L152.549 38.4706C158.135 46.7058 156.34 57.8056 148.477 63.7057C147.182 64.702 145.856 65.6983 144.577 66.7102C138.118 71.7541 131.799 77.2495 125.839 83.0407C119.786 88.8786 113.919 95.199 108.459 101.769C103.108 108.136 98.0682 114.861 93.4501 121.773H72.2318C72.3566 121.555 72.4659 121.353 72.5751 121.135C72.9339 120.528 73.2928 119.92 73.6516 119.313C74.2757 118.239 74.9153 117.18 75.5706 116.122C76.0543 115.312 76.5535 114.518 77.0528 113.709C77.5832 112.868 78.1137 112.028 78.6598 111.203C79.237 110.315 79.7987 109.428 80.3915 108.54C80.9064 107.762 81.4368 106.999 81.9673 106.221C82.5134 105.427 83.0438 104.633 83.5899 103.839C88.4576 96.8959 93.7153 90.1862 99.2227 83.928C104.59 77.7477 110.394 71.8009 116.416 66.2432C121.611 61.4328 127.103 56.8092 132.751 52.5126C135.45 50.4265 136.027 46.6747 134.046 43.9192C130.364 38.8286 126.401 33.8314 122.266 29.021C120.675 27.1685 118.163 26.4679 115.916 27.0595C115.542 27.1529 115.183 27.293 114.824 27.4642C114.466 27.6355 114.122 27.8379 113.795 28.0869C107.819 32.5393 102.015 37.303 96.5549 42.2379C90.361 47.8267 84.3543 53.8514 78.7221 60.1407C73.9168 65.4804 69.3143 71.1003 64.9927 76.9226C60.2186 71.6296 55.148 66.5079 49.9215 61.6819C44.5857 56.747 38.9379 51.9988 33.1341 47.5621C36.7225 42.6271 40.5605 37.7545 44.5857 33.0686C50.4051 37.412 56.0529 42.0511 61.3575 46.8459C61.3575 46.8459 61.3887 46.8615 61.3887 46.8771L63.6822 48.9631L65.7884 46.6124C71.1866 40.5411 77.0371 34.6876 83.153 29.1922C89.3157 23.619 95.7904 18.3572 102.452 13.5468C104.293 12.1924 106.212 10.8536 108.147 9.5459C116.166 4.08167 126.9 5.56059 133.11 12.9863L133.094 12.9708Z" fill="#5B5BD6"/>
<path d="M244.826 106.09C232.3 106.09 221.949 102.152 213.773 94.2766C205.672 86.4008 201.622 76.5747 201.622 64.7985C201.622 53.1722 205.597 43.3837 213.548 35.4328C221.574 27.482 231.55 23.5065 243.476 23.5065C256.227 23.5065 266.541 27.5195 274.417 35.5453L265.416 44.8838C259.64 39.1082 252.327 36.2204 243.476 36.2204C235.225 36.2204 228.399 38.9957 222.999 44.5463C217.598 50.0219 214.898 56.7726 214.898 64.7985C214.898 73.0493 217.598 79.8751 222.999 85.2757C228.474 90.6762 235.713 93.3765 244.714 93.3765C253.265 93.3765 259.64 91.6513 263.841 88.201V70.4241H243.814V58.0477H276.667V94.6142C273.217 98.3646 268.641 101.215 262.941 103.165C257.24 105.115 251.202 106.09 244.826 106.09ZM334.686 97.427C329.061 103.053 322.085 105.865 313.759 105.865C305.433 105.865 298.42 103.053 292.719 97.427C287.094 91.7263 284.281 84.7881 284.281 76.6122C284.281 68.4364 287.094 61.5356 292.719 55.91C298.42 50.2094 305.433 47.3591 313.759 47.3591C322.085 47.3591 329.061 50.2094 334.686 55.91C340.387 61.5356 343.237 68.4364 343.237 76.6122C343.237 84.7881 340.387 91.7263 334.686 97.427ZM313.759 94.3891C318.635 94.3891 322.648 92.7014 325.798 89.3261C329.023 85.8757 330.636 81.6378 330.636 76.6122C330.636 71.5867 329.023 67.3862 325.798 64.0109C322.648 60.5605 318.635 58.8353 313.759 58.8353C308.809 58.8353 304.721 60.5605 301.495 64.0109C298.345 67.3862 296.77 71.5867 296.77 76.6122C296.77 81.6378 298.345 85.8757 301.495 89.3261C304.721 92.7014 308.809 94.3891 313.759 94.3891ZM378.525 105.865C370.049 105.865 362.961 103.09 357.26 97.5395C351.634 91.9139 348.822 84.9381 348.822 76.6122C348.822 68.2863 351.634 61.3481 357.26 55.7975C362.961 50.1719 370.049 47.3591 378.525 47.3591C384.3 47.3591 389.476 48.7467 394.051 51.522C398.702 54.2973 402.265 58.0852 404.74 62.8858L393.939 68.7364C392.514 65.7361 390.451 63.3358 387.751 61.5356C385.05 59.7354 381.975 58.8353 378.525 58.8353C373.574 58.8353 369.486 60.5605 366.261 64.0109C363.036 67.3862 361.423 71.5867 361.423 76.6122C361.423 81.6378 363.036 85.8757 366.261 89.3261C369.486 92.7014 373.574 94.3891 378.525 94.3891C381.975 94.3891 385.05 93.489 387.751 91.6888C390.451 89.8886 392.514 87.4884 393.939 84.4881L404.74 90.3387C402.265 95.1392 398.702 98.9271 394.051 101.702C389.476 104.478 384.3 105.865 378.525 105.865ZM438.665 105.865C430.114 105.865 423.063 103.128 417.513 97.652C412.037 92.1764 409.299 85.1631 409.299 76.6122C409.299 68.2863 412.075 61.3481 417.625 55.7975C423.176 50.1719 430.189 47.3591 438.665 47.3591C446.466 47.3591 452.917 49.8344 458.017 54.7849C463.193 59.7354 465.78 66.5612 465.78 75.2621C465.78 76.7622 465.743 78.1124 465.668 79.3125H421.451C421.751 83.888 423.513 87.6009 426.739 90.4512C429.964 93.2265 433.977 94.6142 438.778 94.6142C445.978 94.6142 451.341 91.7638 454.867 86.0632L464.318 92.814C458.917 101.515 450.366 105.865 438.665 105.865ZM422.013 70.3116H453.292C452.616 66.4111 450.854 63.3733 448.003 61.1981C445.228 58.9478 441.965 57.8227 438.215 57.8227C434.315 57.8227 430.827 58.9103 427.751 61.0856C424.751 63.2608 422.838 66.3361 422.013 70.3116ZM475.69 104.74V48.4842H488.067V58.4978C489.117 55.3475 491.029 52.7972 493.805 50.847C496.655 48.8968 499.693 47.9217 502.918 47.9217C504.868 47.9217 506.481 48.0717 507.756 48.3717V61.0856C505.956 60.4105 503.893 60.073 501.568 60.073C497.818 60.073 494.63 61.6106 492.004 64.686C489.379 67.6863 488.067 71.8867 488.067 77.2873V104.74H475.69ZM540.034 105.303C534.333 105.303 529.683 103.728 526.082 100.577C522.557 97.3519 520.794 92.7014 520.794 86.6258V59.5104H509.093V48.4842H520.794V32.845H533.171V48.4842H549.26V59.5104H533.171V84.6006C533.171 88.051 533.921 90.5262 535.421 92.0264C536.921 93.4515 539.321 94.1641 542.622 94.1641C545.322 94.1641 547.535 93.7891 549.26 93.039V104.065C546.56 104.89 543.484 105.303 540.034 105.303ZM564.373 36.2204C562.122 36.2204 560.172 35.4328 558.522 33.8577C556.872 32.2075 556.047 30.2198 556.047 27.8945C556.047 25.6443 556.872 23.7316 558.522 22.1564C560.172 20.5062 562.122 19.6811 564.373 19.6811C566.698 19.6811 568.648 20.5062 570.223 22.1564C571.798 23.7316 572.586 25.6443 572.586 27.8945C572.586 30.2198 571.798 32.2075 570.223 33.8577C568.648 35.4328 566.698 36.2204 564.373 36.2204ZM558.184 104.74V48.4842H570.561V104.74H558.184ZM589.667 104.74V59.5104H577.965V48.4842H589.667V39.0332C589.667 32.9576 591.467 28.2321 595.067 24.8567C598.668 21.4063 603.281 19.6811 608.906 19.6811C612.357 19.6811 615.432 20.1312 618.132 21.0313V32.0575C616.407 31.3074 614.194 30.9323 611.494 30.9323C608.194 30.9323 605.793 31.6824 604.293 33.1826C602.793 34.6077 602.043 37.0455 602.043 40.4959V48.4842H618.132V59.5104H602.043V104.74H589.667ZM643.188 128.255H629.574L641.613 101.702L617.423 48.4842H631.037L648.251 88.3135L665.578 48.4842H679.304L643.188 128.255Z" fill="#5B5BD6"/>
</svg>
